<?xml version="1.0" encoding="UTF-8"?>
<!DOCTYPE svg PUBLIC "-//W3C//DTD SVG 1.1//EN" "http://www.w3.org/Graphics/SVG/1.1/DTD/svg11.dtd">
<svg version="1.2" width="13.72mm" height="15.75mm" viewBox="0 0 1372 1575" preserveAspectRatio="xMidYMid" fillRule="evenodd" strokeWidth="28.222" strokeLinejoin="round" xmlns="http://www.w3.org/2000/svg" xmlns:ooo="http://xml.openoffice.org/svg/export" xmlnsXlink="http://www.w3.org/1999/xlink" xmlns:presentation="http://sun.com/xmlns/staroffice/presentation" xmlns:smil="http://www.w3.org/2001/SMIL20/" xmlns:anim="urn:oasis:names:tc:opendocument:xmlns:animation:1.0" xmlSpace="preserve">
 <defs className="ClipPathGroup">
  <clipPath id="presentation_clip_path" clipPathUnits="userSpaceOnUse">
   <rect x="0" y="0" width="1372" height="1575"/>
  </clipPath>
  <clipPath id="presentation_clip_path_shrink" clipPathUnits="userSpaceOnUse">
   <rect x="1" y="1" width="1370" height="1572"/>
  </clipPath>
 </defs>
 <defs className="TextShapeIndex">
  <g ooo:slide="id1" ooo:id-list="id3 id4 id5 id6 id7"/>
 </defs>
 <defs className="EmbeddedBulletChars">
  <g id="bullet-char-template-57356" transform="scale(0.00048828125,-0.00048828125)">
   <path d="M 580,1141 L 1163,571 580,0 -4,571 580,1141 Z"/>
  </g>
  <g id="bullet-char-template-57354" transform="scale(0.00048828125,-0.00048828125)">
   <path d="M 8,1128 L 1137,1128 1137,0 8,0 8,1128 Z"/>
  </g>
  <g id="bullet-char-template-10146" transform="scale(0.00048828125,-0.00048828125)">
   <path d="M 174,0 L 602,739 174,1481 1456,739 174,0 Z M 1358,739 L 309,1346 659,739 1358,739 Z"/>
  </g>
  <g id="bullet-char-template-10132" transform="scale(0.00048828125,-0.00048828125)">
   <path d="M 2015,739 L 1276,0 717,0 1260,543 174,543 174,936 1260,936 717,1481 1274,1481 2015,739 Z"/>
  </g>
  <g id="bullet-char-template-10007" transform="scale(0.00048828125,-0.00048828125)">
   <path d="M 0,-2 C -7,14 -16,27 -25,37 L 356,567 C 262,823 215,952 215,954 215,979 228,992 255,992 264,992 276,990 289,987 310,991 331,999 354,1012 L 381,999 492,748 772,1049 836,1024 860,1049 C 881,1039 901,1025 922,1006 886,937 835,863 770,784 769,783 710,716 594,584 L 774,223 C 774,196 753,168 711,139 L 727,119 C 717,90 699,76 672,76 641,76 570,178 457,381 L 164,-76 C 142,-110 111,-127 72,-127 30,-127 9,-110 8,-76 1,-67 -2,-52 -2,-32 -2,-23 -1,-13 0,-2 Z"/>
  </g>
  <g id="bullet-char-template-10004" transform="scale(0.00048828125,-0.00048828125)">
   <path d="M 285,-33 C 182,-33 111,30 74,156 52,228 41,333 41,471 41,549 55,616 82,672 116,743 169,778 240,778 293,778 328,747 346,684 L 369,508 C 377,444 397,411 428,410 L 1163,1116 C 1174,1127 1196,1133 1229,1133 1271,1133 1292,1118 1292,1087 L 1292,965 C 1292,929 1282,901 1262,881 L 442,47 C 390,-6 338,-33 285,-33 Z"/>
  </g>
  <g id="bullet-char-template-9679" transform="scale(0.00048828125,-0.00048828125)">
   <path d="M 813,0 C 632,0 489,54 383,161 276,268 223,411 223,592 223,773 276,916 383,1023 489,1130 632,1184 813,1184 992,1184 1136,1130 1245,1023 1353,916 1407,772 1407,592 1407,412 1353,268 1245,161 1136,54 992,0 813,0 Z"/>
  </g>
  <g id="bullet-char-template-8226" transform="scale(0.00048828125,-0.00048828125)">
   <path d="M 346,457 C 273,457 209,483 155,535 101,586 74,649 74,723 74,796 101,859 155,911 209,963 273,989 346,989 419,989 480,963 531,910 582,859 608,796 608,723 608,648 583,586 532,535 482,483 420,457 346,457 Z"/>
  </g>
  <g id="bullet-char-template-8211" transform="scale(0.00048828125,-0.00048828125)">
   <path d="M -4,459 L 1135,459 1135,606 -4,606 -4,459 Z"/>
  </g>
  <g id="bullet-char-template-61548" transform="scale(0.00048828125,-0.00048828125)">
   <path d="M 173,740 C 173,903 231,1043 346,1159 462,1274 601,1332 765,1332 928,1332 1067,1274 1183,1159 1299,1043 1357,903 1357,740 1357,577 1299,437 1183,322 1067,206 928,148 765,148 601,148 462,206 346,322 231,437 173,577 173,740 Z"/>
  </g>
 </defs>
 <defs className="TextEmbeddedBitmaps"/>
 <g>
  <g id="id2" className="Master_Slide">
   <g id="bg-id2" className="Background"/>
   <g id="bo-id2" className="BackgroundObjects"/>
  </g>
 </g>
 <g className="SlideGroup">
  <g>
   <g id="container-id1">
    <g id="id1" className="Slide" clipPath="url(#presentation_clip_path)">
     <g className="Page">
      <g className="Group">
       <g className="com.sun.star.drawing.ClosedBezierShape">
        <g id="id3">
         <rect className="BoundingBox" stroke="none" fill="none" x="42" y="30" width="1291" height="1516"/>
        </g>
       </g>
       <g className="com.sun.star.drawing.ClosedBezierShape">
        <g id="id4">
         <rect className="BoundingBox" stroke="none" fill="none" x="20" y="8" width="1334" height="1560"/>
         <path fill="none" stroke="current" strokeWidth="43" strokeLinejoin="round" strokeLinecap="round" d="M 822,33 C 248,-7 -87,381 89,1069 170,1387 438,1589 749,1537 1018,1491 1197,1334 1281,922 1359,536 1427,75 822,33 Z"/>
        </g>
       </g>
       <g className="com.sun.star.drawing.ClosedBezierShape">
        <g id="id5">
         <rect className="BoundingBox" stroke="none" fill="none" x="474" y="161" width="661" height="1193"/>
        </g>
       </g>
       <g className="com.sun.star.drawing.ClosedBezierShape">
        <g id="id6">
         <rect className="BoundingBox" stroke="none" fill="none" x="452" y="139" width="705" height="1237"/>
         <path fill="none" stroke="current" strokeWidth="43" strokeLinejoin="round" strokeLinecap="round" d="M 767,161 C 743,285 625,255 520,271 604,310 753,299 767,409 L 785,555 C 729,597 634,541 556,528 556,534 811,655 813,656 838,671 892,884 827,977 711,1049 590,974 474,968 583,1002 740,1035 749,1069 761,1179 773,1267 785,1353 790,1256 778,1152 840,1078 990,1046 993,1075 1070,1087 997,1054 956,980 932,886 912,759 937,755 951,720 1033,692 1074,748 1134,757 1057,712 968,656 905,592 831,518 932,437 1006,363 916,334 821,330 767,161 Z"/>
        </g>
       </g>
       <g className="com.sun.star.drawing.OpenBezierShape">
        <g id="id7">
         <rect className="BoundingBox" stroke="none" fill="none" x="227" y="345" width="164" height="949"/>
         <path fill="none" stroke="current" strokeWidth="43" strokeLinejoin="round" strokeLinecap="round" d="M 327,367 C 205,509 232,1137 368,1271"/>
        </g>
       </g>
      </g>
     </g>
    </g>
   </g>
  </g>
 </g>
</svg>