<?xml version="1.0" encoding="UTF-8"?>
<!DOCTYPE svg PUBLIC "-//W3C//DTD SVG 1.1//EN" "http://www.w3.org/Graphics/SVG/1.1/DTD/svg11.dtd">
<svg version="1.2" width="10.41mm" height="41.4mm" viewBox="0 0 1041 4140" preserveAspectRatio="xMidYMid" fill-rule="evenodd" stroke-width="28.222" stroke-linejoin="round" xmlns="http://www.w3.org/2000/svg" xmlns:ooo="http://xml.openoffice.org/svg/export" xmlns:xlink="http://www.w3.org/1999/xlink" xmlns:presentation="http://sun.com/xmlns/staroffice/presentation" xmlns:smil="http://www.w3.org/2001/SMIL20/" xmlns:anim="urn:oasis:names:tc:opendocument:xmlns:animation:1.0" xml:space="preserve">
 <defs class="ClipPathGroup">
  <clipPath id="presentation_clip_path" clipPathUnits="userSpaceOnUse">
   <rect x="0" y="0" width="1041" height="4140"/>
  </clipPath>
  <clipPath id="presentation_clip_path_shrink" clipPathUnits="userSpaceOnUse">
   <rect x="1" y="4" width="1039" height="4132"/>
  </clipPath>
 </defs>
 <defs class="TextShapeIndex">
  <g ooo:slide="id1" ooo:id-list="id3 id4 id5 id6 id7 id8 id9 id10"/>
 </defs>
 <defs class="EmbeddedBulletChars">
  <g id="bullet-char-template-57356" transform="scale(0.00048828125,-0.00048828125)">
   <path d="M 580,1141 L 1163,571 580,0 -4,571 580,1141 Z"/>
  </g>
  <g id="bullet-char-template-57354" transform="scale(0.00048828125,-0.00048828125)">
   <path d="M 8,1128 L 1137,1128 1137,0 8,0 8,1128 Z"/>
  </g>
  <g id="bullet-char-template-10146" transform="scale(0.00048828125,-0.00048828125)">
   <path d="M 174,0 L 602,739 174,1481 1456,739 174,0 Z M 1358,739 L 309,1346 659,739 1358,739 Z"/>
  </g>
  <g id="bullet-char-template-10132" transform="scale(0.00048828125,-0.00048828125)">
   <path d="M 2015,739 L 1276,0 717,0 1260,543 174,543 174,936 1260,936 717,1481 1274,1481 2015,739 Z"/>
  </g>
  <g id="bullet-char-template-10007" transform="scale(0.00048828125,-0.00048828125)">
   <path d="M 0,-2 C -7,14 -16,27 -25,37 L 356,567 C 262,823 215,952 215,954 215,979 228,992 255,992 264,992 276,990 289,987 310,991 331,999 354,1012 L 381,999 492,748 772,1049 836,1024 860,1049 C 881,1039 901,1025 922,1006 886,937 835,863 770,784 769,783 710,716 594,584 L 774,223 C 774,196 753,168 711,139 L 727,119 C 717,90 699,76 672,76 641,76 570,178 457,381 L 164,-76 C 142,-110 111,-127 72,-127 30,-127 9,-110 8,-76 1,-67 -2,-52 -2,-32 -2,-23 -1,-13 0,-2 Z"/>
  </g>
  <g id="bullet-char-template-10004" transform="scale(0.00048828125,-0.00048828125)">
   <path d="M 285,-33 C 182,-33 111,30 74,156 52,228 41,333 41,471 41,549 55,616 82,672 116,743 169,778 240,778 293,778 328,747 346,684 L 369,508 C 377,444 397,411 428,410 L 1163,1116 C 1174,1127 1196,1133 1229,1133 1271,1133 1292,1118 1292,1087 L 1292,965 C 1292,929 1282,901 1262,881 L 442,47 C 390,-6 338,-33 285,-33 Z"/>
  </g>
  <g id="bullet-char-template-9679" transform="scale(0.00048828125,-0.00048828125)">
   <path d="M 813,0 C 632,0 489,54 383,161 276,268 223,411 223,592 223,773 276,916 383,1023 489,1130 632,1184 813,1184 992,1184 1136,1130 1245,1023 1353,916 1407,772 1407,592 1407,412 1353,268 1245,161 1136,54 992,0 813,0 Z"/>
  </g>
  <g id="bullet-char-template-8226" transform="scale(0.00048828125,-0.00048828125)">
   <path d="M 346,457 C 273,457 209,483 155,535 101,586 74,649 74,723 74,796 101,859 155,911 209,963 273,989 346,989 419,989 480,963 531,910 582,859 608,796 608,723 608,648 583,586 532,535 482,483 420,457 346,457 Z"/>
  </g>
  <g id="bullet-char-template-8211" transform="scale(0.00048828125,-0.00048828125)">
   <path d="M -4,459 L 1135,459 1135,606 -4,606 -4,459 Z"/>
  </g>
  <g id="bullet-char-template-61548" transform="scale(0.00048828125,-0.00048828125)">
   <path d="M 173,740 C 173,903 231,1043 346,1159 462,1274 601,1332 765,1332 928,1332 1067,1274 1183,1159 1299,1043 1357,903 1357,740 1357,577 1299,437 1183,322 1067,206 928,148 765,148 601,148 462,206 346,322 231,437 173,577 173,740 Z"/>
  </g>
 </defs>
 <defs class="TextEmbeddedBitmaps"/>
 <g>
  <g id="id2" class="Master_Slide">
   <g id="bg-id2" class="Background"/>
   <g id="bo-id2" class="BackgroundObjects"/>
  </g>
 </g>
 <g class="SlideGroup">
  <g>
   <g id="container-id1">
    <g id="id1" class="Slide" clip-path="url(#presentation_clip_path)">
     <g class="Page">
      <g class="com.sun.star.drawing.ClosedBezierShape">
       <g id="id3">
        <rect class="BoundingBox" stroke="none" fill="none" x="1" y="10" width="728" height="3942"/>
        <path fill="rgb(0,0,0)" stroke="none" d="M 459,131 C 452,135 436,144 428,146 397,154 385,124 394,99 406,61 452,35 491,51 506,56 518,66 527,77 538,90 546,106 549,123 561,186 507,258 459,294 L 371,355 C 271,440 212,535 184,662 149,822 166,969 219,1122 262,1245 345,1403 346,1535 L 346,1638 C 329,1741 254,1863 163,1916 127,1937 93,1952 52,1955 37,1958 11,1956 10,1955 19,1984 19,1982 37,2005 L 123,2034 C 76,2062 62,2055 26,2098 53,2097 74,2094 99,2102 223,2144 326,2348 344,2471 375,2664 308,2750 243,2922 201,3037 178,3141 179,3263 181,3398 224,3540 310,3644 379,3725 479,3761 464,3842 455,3891 397,3930 347,3916 315,3907 273,3872 288,3836 308,3785 349,3837 363,3858 407,3796 306,3751 265,3805 231,3850 262,3912 308,3933 365,3961 442,3945 478,3890 497,3860 491,3813 491,3779 582,3809 622,3821 717,3783 687,3772 637,3783 604,3782 536,3768 485,3748 428,3706 378,3670 348,3638 313,3588 194,3420 191,3209 247,3018 L 346,2755 386,2636 C 438,2458 507,2112 259,2042 L 259,2027 C 384,1970 416,1876 421,1748 L 421,1685 C 406,1371 188,1098 195,821 197,764 212,677 230,622 249,563 268,523 305,472 348,412 393,370 459,335 531,298 625,288 706,288 666,267 590,261 548,274 550,207 608,164 564,76 522,-12 394,-3 366,83 358,109 359,147 377,168 397,191 453,204 459,131 Z"/>
        <path fill="none" stroke="rgb(0,0,0)" stroke-width="8" stroke-linejoin="miter" d="M 459,131 C 452,135 436,144 428,146 397,154 385,124 394,99 406,61 452,35 491,51 506,56 518,66 527,77 538,90 546,106 549,123 561,186 507,258 459,294 L 371,355 C 271,440 212,535 184,662 149,822 166,969 219,1122 262,1245 345,1403 346,1535 L 346,1638 C 329,1741 254,1863 163,1916 127,1937 93,1952 52,1955 37,1958 11,1956 10,1955 19,1984 19,1982 37,2005 L 123,2034 C 76,2062 62,2055 26,2098 53,2097 74,2094 99,2102 223,2144 326,2348 344,2471 375,2664 308,2750 243,2922 201,3037 178,3141 179,3263 181,3398 224,3540 310,3644 379,3725 479,3761 464,3842 455,3891 397,3930 347,3916 315,3907 273,3872 288,3836 308,3785 349,3837 363,3858 407,3796 306,3751 265,3805 231,3850 262,3912 308,3933 365,3961 442,3945 478,3890 497,3860 491,3813 491,3779 582,3809 622,3821 717,3783 687,3772 637,3783 604,3782 536,3768 485,3748 428,3706 378,3670 348,3638 313,3588 194,3420 191,3209 247,3018 L 346,2755 386,2636 C 438,2458 507,2112 259,2042 L 259,2027 C 384,1970 416,1876 421,1748 L 421,1685 C 406,1371 188,1098 195,821 197,764 212,677 230,622 249,563 268,523 305,472 348,412 393,370 459,335 531,298 625,288 706,288 666,267 590,261 548,274 550,207 608,164 564,76 522,-12 394,-3 366,83 358,109 359,147 377,168 397,191 453,204 459,131 Z"/>
       </g>
      </g>
      <g class="com.sun.star.drawing.ClosedBezierShape">
       <g id="id4">
        <rect class="BoundingBox" stroke="none" fill="none" x="294" y="405" width="539" height="494"/>
        <path fill="rgb(0,0,0)" stroke="none" d="M 315,868 L 328,710 C 356,583 495,425 636,434 765,442 869,620 732,700 655,745 558,693 559,638 560,602 601,571 628,551 574,532 537,582 533,630 525,710 590,743 660,748 749,754 819,694 827,607 831,569 816,527 796,496 726,391 603,392 500,443 375,506 295,643 299,781 301,811 309,839 315,868 Z"/>
        <path fill="none" stroke="rgb(0,0,0)" stroke-width="8" stroke-linejoin="miter" d="M 315,868 L 328,710 C 356,583 495,425 636,434 765,442 869,620 732,700 655,745 558,693 559,638 560,602 601,571 628,551 574,532 537,582 533,630 525,710 590,743 660,748 749,754 819,694 827,607 831,569 816,527 796,496 726,391 603,392 500,443 375,506 295,643 299,781 301,811 309,839 315,868 Z"/>
       </g>
      </g>
      <g class="com.sun.star.drawing.ClosedBezierShape">
       <g id="id5">
        <rect class="BoundingBox" stroke="none" fill="none" x="46" y="2053" width="372" height="472"/>
        <path fill="rgb(0,0,0)" stroke="none" d="M 387,2510 L 352,2384 C 306,2244 222,2097 58,2082 89,2061 102,2058 139,2058 198,2057 238,2055 291,2085 424,2161 434,2382 387,2510 Z"/>
        <path fill="none" stroke="rgb(0,0,0)" stroke-width="8" stroke-linejoin="miter" d="M 387,2510 L 352,2384 C 306,2244 222,2097 58,2082 89,2061 102,2058 139,2058 198,2057 238,2055 291,2085 424,2161 434,2382 387,2510 Z"/>
       </g>
      </g>
      <g class="com.sun.star.drawing.ClosedBezierShape">
       <g id="id6">
        <rect class="BoundingBox" stroke="none" fill="none" x="319" y="3161" width="588" height="525"/>
        <path fill="rgb(0,0,0)" stroke="none" d="M 336,3177 C 330,3221 320,3281 326,3327 349,3509 511,3693 708,3679 754,3676 799,3666 835,3638 955,3543 902,3308 757,3296 707,3292 669,3314 650,3359 620,3422 649,3520 748,3461 702,3464 676,3442 671,3414 663,3371 710,3311 764,3324 852,3347 939,3519 812,3614 705,3694 552,3632 468,3549 425,3505 385,3439 364,3382 337,3308 348,3207 336,3177 Z"/>
        <path fill="none" stroke="rgb(0,0,0)" stroke-width="8" stroke-linejoin="miter" d="M 336,3177 C 330,3221 320,3281 326,3327 349,3509 511,3693 708,3679 754,3676 799,3666 835,3638 955,3543 902,3308 757,3296 707,3292 669,3314 650,3359 620,3422 649,3520 748,3461 702,3464 676,3442 671,3414 663,3371 710,3311 764,3324 852,3347 939,3519 812,3614 705,3694 552,3632 468,3549 425,3505 385,3439 364,3382 337,3308 348,3207 336,3177 Z"/>
       </g>
      </g>
      <g class="com.sun.star.drawing.ClosedBezierShape">
       <g id="id7">
        <rect class="BoundingBox" stroke="none" fill="none" x="645" y="3852" width="209" height="146"/>
        <path fill="rgb(0,0,0)" stroke="none" d="M 668,3858 C 690,3890 722,3885 757,3899 794,3914 809,3928 829,3961 748,3983 718,3921 652,3884 671,3939 760,4012 819,3988 874,3964 840,3915 804,3894 789,3884 774,3878 757,3873 L 668,3858 Z"/>
        <path fill="none" stroke="rgb(0,0,0)" stroke-width="8" stroke-linejoin="miter" d="M 668,3858 C 690,3890 722,3885 757,3899 794,3914 809,3928 829,3961 748,3983 718,3921 652,3884 671,3939 760,4012 819,3988 874,3964 840,3915 804,3894 789,3884 774,3878 757,3873 L 668,3858 Z"/>
       </g>
      </g>
      <g class="com.sun.star.drawing.ClosedBezierShape">
       <g id="id8">
        <rect class="BoundingBox" stroke="none" fill="none" x="549" y="3870" width="157" height="264"/>
        <path fill="rgb(0,0,0)" stroke="none" d="M 563,3882 L 581,3903 C 617,3940 669,3996 672,4048 674,4069 668,4085 660,4104 600,4069 589,4001 579,3938 562,3980 575,4059 601,4096 616,4116 641,4137 668,4125 699,4112 703,4070 699,4041 690,3970 626,3910 563,3882 Z"/>
        <path fill="none" stroke="rgb(0,0,0)" stroke-width="8" stroke-linejoin="miter" d="M 563,3882 L 581,3903 C 617,3940 669,3996 672,4048 674,4069 668,4085 660,4104 600,4069 589,4001 579,3938 562,3980 575,4059 601,4096 616,4116 641,4137 668,4125 699,4112 703,4070 699,4041 690,3970 626,3910 563,3882 Z"/>
       </g>
      </g>
      <g class="com.sun.star.drawing.ClosedBezierShape">
       <g id="id9">
        <rect class="BoundingBox" stroke="none" fill="none" x="644" y="19" width="261" height="168"/>
        <path fill="rgb(0,0,0)" stroke="none" d="M 662,174 L 690,168 C 741,161 816,148 851,109 865,94 869,77 875,58 806,48 756,95 710,139 722,95 780,41 824,27 848,21 881,19 894,45 911,75 888,110 867,131 817,182 729,190 662,174 Z"/>
        <path fill="none" stroke="rgb(0,0,0)" stroke-width="8" stroke-linejoin="miter" d="M 662,174 L 690,168 C 741,161 816,148 851,109 865,94 869,77 875,58 806,48 756,95 710,139 722,95 780,41 824,27 848,21 881,19 894,45 911,75 888,110 867,131 817,182 729,190 662,174 Z"/>
       </g>
      </g>
      <g class="com.sun.star.drawing.ClosedBezierShape">
       <g id="id10">
        <rect class="BoundingBox" stroke="none" fill="none" x="751" y="199" width="224" height="115"/>
        <path fill="rgb(0,0,0)" stroke="none" d="M 762,244 C 798,259 822,239 859,232 898,226 919,230 953,248 895,308 837,271 762,273 807,311 921,327 959,276 993,227 939,203 897,203 879,203 863,205 846,210 L 762,244 Z"/>
        <path fill="none" stroke="rgb(0,0,0)" stroke-width="8" stroke-linejoin="miter" d="M 762,244 C 798,259 822,239 859,232 898,226 919,230 953,248 895,308 837,271 762,273 807,311 921,327 959,276 993,227 939,203 897,203 879,203 863,205 846,210 L 762,244 Z"/>
       </g>
      </g>
     </g>
    </g>
   </g>
  </g>
 </g>
</svg>