<?xml version="1.0" encoding="UTF-8"?>
<!DOCTYPE svg PUBLIC "-//W3C//DTD SVG 1.1//EN" "http://www.w3.org/Graphics/SVG/1.1/DTD/svg11.dtd">
<svg version="1.2" width="25.65mm" height="25.65mm" viewBox="0 0 2565 2565" preserveAspectRatio="xMidYMid" fillRule="evenodd" strokeWidth="28.222" strokeLinejoin="round" xmlns="http://www.w3.org/2000/svg" xmlns:ooo="http://xml.openoffice.org/svg/export" xmlnsXlink="http://www.w3.org/1999/xlink" xmlns:presentation="http://sun.com/xmlns/staroffice/presentation" xmlns:smil="http://www.w3.org/2001/SMIL20/" xmlns:anim="urn:oasis:names:tc:opendocument:xmlns:animation:1.0" xmlSpace="preserve">
 <defs className="ClipPathGroup">
  <clipPath id="presentation_clip_path" clipPathUnits="userSpaceOnUse">
   <rect x="0" y="0" width="2565" height="2565"/>
  </clipPath>
  <clipPath id="presentation_clip_path_shrink" clipPathUnits="userSpaceOnUse">
   <rect x="2" y="2" width="2560" height="2560"/>
  </clipPath>
 </defs>
 <defs className="TextShapeIndex">
  <g ooo:slide="id1" ooo:id-list="id3"/>
 </defs>
 <defs className="EmbeddedBulletChars">
  <g id="bullet-char-template-57356" transform="scale(0.00048828125,-0.00048828125)">
   <path d="M 580,1141 L 1163,571 580,0 -4,571 580,1141 Z"/>
  </g>
  <g id="bullet-char-template-57354" transform="scale(0.00048828125,-0.00048828125)">
   <path d="M 8,1128 L 1137,1128 1137,0 8,0 8,1128 Z"/>
  </g>
  <g id="bullet-char-template-10146" transform="scale(0.00048828125,-0.00048828125)">
   <path d="M 174,0 L 602,739 174,1481 1456,739 174,0 Z M 1358,739 L 309,1346 659,739 1358,739 Z"/>
  </g>
  <g id="bullet-char-template-10132" transform="scale(0.00048828125,-0.00048828125)">
   <path d="M 2015,739 L 1276,0 717,0 1260,543 174,543 174,936 1260,936 717,1481 1274,1481 2015,739 Z"/>
  </g>
  <g id="bullet-char-template-10007" transform="scale(0.00048828125,-0.00048828125)">
   <path d="M 0,-2 C -7,14 -16,27 -25,37 L 356,567 C 262,823 215,952 215,954 215,979 228,992 255,992 264,992 276,990 289,987 310,991 331,999 354,1012 L 381,999 492,748 772,1049 836,1024 860,1049 C 881,1039 901,1025 922,1006 886,937 835,863 770,784 769,783 710,716 594,584 L 774,223 C 774,196 753,168 711,139 L 727,119 C 717,90 699,76 672,76 641,76 570,178 457,381 L 164,-76 C 142,-110 111,-127 72,-127 30,-127 9,-110 8,-76 1,-67 -2,-52 -2,-32 -2,-23 -1,-13 0,-2 Z"/>
  </g>
  <g id="bullet-char-template-10004" transform="scale(0.00048828125,-0.00048828125)">
   <path d="M 285,-33 C 182,-33 111,30 74,156 52,228 41,333 41,471 41,549 55,616 82,672 116,743 169,778 240,778 293,778 328,747 346,684 L 369,508 C 377,444 397,411 428,410 L 1163,1116 C 1174,1127 1196,1133 1229,1133 1271,1133 1292,1118 1292,1087 L 1292,965 C 1292,929 1282,901 1262,881 L 442,47 C 390,-6 338,-33 285,-33 Z"/>
  </g>
  <g id="bullet-char-template-9679" transform="scale(0.00048828125,-0.00048828125)">
   <path d="M 813,0 C 632,0 489,54 383,161 276,268 223,411 223,592 223,773 276,916 383,1023 489,1130 632,1184 813,1184 992,1184 1136,1130 1245,1023 1353,916 1407,772 1407,592 1407,412 1353,268 1245,161 1136,54 992,0 813,0 Z"/>
  </g>
  <g id="bullet-char-template-8226" transform="scale(0.00048828125,-0.00048828125)">
   <path d="M 346,457 C 273,457 209,483 155,535 101,586 74,649 74,723 74,796 101,859 155,911 209,963 273,989 346,989 419,989 480,963 531,910 582,859 608,796 608,723 608,648 583,586 532,535 482,483 420,457 346,457 Z"/>
  </g>
  <g id="bullet-char-template-8211" transform="scale(0.00048828125,-0.00048828125)">
   <path d="M -4,459 L 1135,459 1135,606 -4,606 -4,459 Z"/>
  </g>
  <g id="bullet-char-template-61548" transform="scale(0.00048828125,-0.00048828125)">
   <path d="M 173,740 C 173,903 231,1043 346,1159 462,1274 601,1332 765,1332 928,1332 1067,1274 1183,1159 1299,1043 1357,903 1357,740 1357,577 1299,437 1183,322 1067,206 928,148 765,148 601,148 462,206 346,322 231,437 173,577 173,740 Z"/>
  </g>
 </defs>
 <defs className="TextEmbeddedBitmaps"/>
 <g>
  <g id="id2" className="Master_Slide">
   <g id="bg-id2" className="Background"/>
   <g id="bo-id2" className="BackgroundObjects"/>
  </g>
 </g>
 <g className="SlideGroup">
  <g>
   <g id="container-id1">
    <g id="id1" className="Slide" clipPath="url(#presentation_clip_path)">
     <g className="Page">
      <g className="com.sun.star.drawing.ClosedBezierShape">
       <g id="id3">
        <rect className="BoundingBox" stroke="none" fill="none" x="7" y="8" width="2550" height="2550"/>
        <path fill="rgb(235,100,64)" stroke="none" d="M 1101,352 C 1081,340 1082,330 1068,312 L 986,210 C 915,131 810,51 706,25 L 639,16 C 618,14 608,11 585,12 530,14 474,26 422,45 376,62 333,82 292,110 198,177 130,277 88,387 L 75,431 63,462 58,495 38,574 34,624 C 27,674 13,725 13,776 12,799 19,807 19,821 20,835 13,843 12,875 L 36,1137 C 36,1172 45,1174 49,1206 L 60,1270 60,1309 81,1388 86,1428 97,1462 111,1536 124,1575 139,1640 204,1847 213,1884 228,1921 C 274,2060 354,2287 440,2401 470,2441 497,2473 538,2502 583,2535 625,2552 682,2552 715,2553 747,2551 778,2541 893,2503 987,2358 1036,2252 L 1084,2138 C 1094,2110 1101,2110 1101,2079 1102,2066 1102,2036 1098,2025 1086,1988 1041,1962 1005,1961 968,1960 931,1978 913,2012 L 893,2064 C 857,2145 842,2195 787,2268 766,2295 728,2345 692,2344 663,2343 629,2303 612,2282 571,2228 539,2166 513,2103 L 498,2062 464,1975 452,1936 399,1788 383,1743 375,1709 359,1669 350,1630 335,1585 328,1546 309,1482 303,1447 284,1378 280,1339 269,1299 255,1220 251,1186 C 243,1139 230,1080 228,1033 L 228,959 C 224,924 219,924 219,880 L 219,796 228,727 228,678 C 230,614 263,500 289,441 306,404 342,347 370,318 382,306 427,270 442,262 461,252 471,251 489,245 519,234 549,224 581,224 683,224 787,300 851,377 918,456 947,503 999,594 1051,685 1092,782 1130,880 L 1147,915 1183,1023 1235,1176 1252,1225 1258,1255 1275,1304 1282,1339 1294,1369 1307,1423 1352,1585 1359,1620 1378,1684 1383,1714 1393,1743 1404,1793 1407,1823 1426,1891 1432,1931 1451,2005 C 1458,2043 1446,2030 1470,2103 L 1486,2138 1499,2178 C 1513,2217 1530,2256 1549,2293 1597,2388 1646,2463 1747,2502 1783,2516 1780,2518 1820,2518 L 1858,2518 C 1889,2517 1893,2513 1921,2502 2003,2471 2049,2429 2107,2363 2221,2235 2298,2040 2350,1877 L 2370,1823 2384,1773 2395,1743 2403,1709 C 2413,1676 2416,1677 2423,1640 L 2443,1575 2450,1536 2468,1472 2483,1398 2493,1359 2499,1314 2517,1230 2525,1161 2534,1092 C 2539,1060 2547,1044 2547,1008 L 2547,920 2552,850 2552,772 2547,722 2547,663 C 2547,625 2534,574 2527,534 2497,369 2425,211 2287,112 2248,84 2204,60 2157,48 2113,37 2062,22 2017,22 1985,22 1953,23 1921,27 L 1887,36 C 1767,56 1677,93 1569,147 1504,180 1427,212 1445,303 1459,373 1522,392 1583,377 L 1718,305 C 1748,292 1834,258 1863,251 L 1897,247 C 1935,238 1923,234 1969,234 L 2017,234 C 2061,234 2048,236 2085,247 2098,250 2103,249 2118,255 2200,290 2265,378 2296,461 L 2305,495 2322,544 2328,589 2337,624 2350,742 2350,910 2338,1053 2327,1102 2324,1156 2313,1220 2303,1255 2299,1295 2280,1373 2275,1408 2204,1659 2196,1694 2180,1739 C 2175,1754 2177,1757 2168,1783 L 2154,1814 2148,1842 2131,1884 2081,2010 C 2035,2101 2006,2171 1933,2245 1908,2270 1886,2292 1853,2304 1807,2321 1767,2261 1747,2227 1720,2180 1715,2164 1697,2115 L 1680,2069 1673,2035 1654,1971 1649,1936 1637,1897 1622,1823 1601,1749 1595,1714 1578,1655 1572,1620 1561,1591 1547,1517 1531,1467 1523,1428 1505,1369 1498,1334 1482,1285 1474,1250 1455,1196 1445,1156 1429,1112 1421,1078 1404,1033 1397,1005 1381,969 1350,871 1337,845 1295,737 1261,663 1199,530 1144,429 C 1131,406 1107,377 1101,352 Z"/>
        <path fill="none" stroke="rgb(0,0,0)" strokeWidth="8" strokeLinejoin="miter" d="M 1101,352 C 1081,340 1082,330 1068,312 L 986,210 C 915,131 810,51 706,25 L 639,16 C 618,14 608,11 585,12 530,14 474,26 422,45 376,62 333,82 292,110 198,177 130,277 88,387 L 75,431 63,462 58,495 38,574 34,624 C 27,674 13,725 13,776 12,799 19,807 19,821 20,835 13,843 12,875 L 36,1137 C 36,1172 45,1174 49,1206 L 60,1270 60,1309 81,1388 86,1428 97,1462 111,1536 124,1575 139,1640 204,1847 213,1884 228,1921 C 274,2060 354,2287 440,2401 470,2441 497,2473 538,2502 583,2535 625,2552 682,2552 715,2553 747,2551 778,2541 893,2503 987,2358 1036,2252 L 1084,2138 C 1094,2110 1101,2110 1101,2079 1102,2066 1102,2036 1098,2025 1086,1988 1041,1962 1005,1961 968,1960 931,1978 913,2012 L 893,2064 C 857,2145 842,2195 787,2268 766,2295 728,2345 692,2344 663,2343 629,2303 612,2282 571,2228 539,2166 513,2103 L 498,2062 464,1975 452,1936 399,1788 383,1743 375,1709 359,1669 350,1630 335,1585 328,1546 309,1482 303,1447 284,1378 280,1339 269,1299 255,1220 251,1186 C 243,1139 230,1080 228,1033 L 228,959 C 224,924 219,924 219,880 L 219,796 228,727 228,678 C 230,614 263,500 289,441 306,404 342,347 370,318 382,306 427,270 442,262 461,252 471,251 489,245 519,234 549,224 581,224 683,224 787,300 851,377 918,456 947,503 999,594 1051,685 1092,782 1130,880 L 1147,915 1183,1023 1235,1176 1252,1225 1258,1255 1275,1304 1282,1339 1294,1369 1307,1423 1352,1585 1359,1620 1378,1684 1383,1714 1393,1743 1404,1793 1407,1823 1426,1891 1432,1931 1451,2005 C 1458,2043 1446,2030 1470,2103 L 1486,2138 1499,2178 C 1513,2217 1530,2256 1549,2293 1597,2388 1646,2463 1747,2502 1783,2516 1780,2518 1820,2518 L 1858,2518 C 1889,2517 1893,2513 1921,2502 2003,2471 2049,2429 2107,2363 2221,2235 2298,2040 2350,1877 L 2370,1823 2384,1773 2395,1743 2403,1709 C 2413,1676 2416,1677 2423,1640 L 2443,1575 2450,1536 2468,1472 2483,1398 2493,1359 2499,1314 2517,1230 2525,1161 2534,1092 C 2539,1060 2547,1044 2547,1008 L 2547,920 2552,850 2552,772 2547,722 2547,663 C 2547,625 2534,574 2527,534 2497,369 2425,211 2287,112 2248,84 2204,60 2157,48 2113,37 2062,22 2017,22 1985,22 1953,23 1921,27 L 1887,36 C 1767,56 1677,93 1569,147 1504,180 1427,212 1445,303 1459,373 1522,392 1583,377 L 1718,305 C 1748,292 1834,258 1863,251 L 1897,247 C 1935,238 1923,234 1969,234 L 2017,234 C 2061,234 2048,236 2085,247 2098,250 2103,249 2118,255 2200,290 2265,378 2296,461 L 2305,495 2322,544 2328,589 2337,624 2350,742 2350,910 2338,1053 2327,1102 2324,1156 2313,1220 2303,1255 2299,1295 2280,1373 2275,1408 2204,1659 2196,1694 2180,1739 C 2175,1754 2177,1757 2168,1783 L 2154,1814 2148,1842 2131,1884 2081,2010 C 2035,2101 2006,2171 1933,2245 1908,2270 1886,2292 1853,2304 1807,2321 1767,2261 1747,2227 1720,2180 1715,2164 1697,2115 L 1680,2069 1673,2035 1654,1971 1649,1936 1637,1897 1622,1823 1601,1749 1595,1714 1578,1655 1572,1620 1561,1591 1547,1517 1531,1467 1523,1428 1505,1369 1498,1334 1482,1285 1474,1250 1455,1196 1445,1156 1429,1112 1421,1078 1404,1033 1397,1005 1381,969 1350,871 1337,845 1295,737 1261,663 1199,530 1144,429 C 1131,406 1107,377 1101,352 Z"/>
       </g>
      </g>
     </g>
    </g>
   </g>
  </g>
 </g>
</svg>